<svg xmlns="http://www.w3.org/2000/svg" xmlns:xlink="http://www.w3.org/1999/xlink" width="200" viewBox="0 0 150 149.999998" height="200" preserveAspectRatio="xMidYMid meet"><defs><clipPath id="8e6572bd05"><path d="M 49.148438 46.667969 L 100.882812 46.667969 L 100.882812 103.667969 L 49.148438 103.667969 Z M 49.148438 46.667969 " clip-rule="nonzero"></path></clipPath></defs><rect x="-15" width="180" fill="#ffffff" y="-15" height="179.999997" fill-opacity="1"></rect><rect x="-15" width="180" fill="#ffffff" y="-15" height="179.999997" fill-opacity="1"></rect><g clip-path="url(#8e6572bd05)"><path fill="#eb3035" d="M 96.34375 89.03125 L 96.34375 76.214844 L 98.613281 77.480469 L 98.613281 87.753906 Z M 73.066406 99.972656 L 84.902344 93.292969 L 84.902344 95.484375 L 75.015625 101.070312 Z M 51.40625 85.484375 L 63.640625 92.40625 L 61.644531 93.535156 L 51.40625 87.753906 Z M 53.628906 61.214844 L 53.628906 73.890625 L 51.40625 72.625 L 51.40625 62.457031 Z M 77.011719 50.371094 L 65.117188 57.28125 L 65.117188 54.785156 L 75.003906 49.253906 Z M 98.625 64.75 L 86.015625 57.726562 L 88.042969 56.539062 L 98.625 62.457031 Z M 81.660156 60.257812 L 83.734375 59.046875 L 98.625 67.335938 L 98.625 69.695312 Z M 77.089844 62.914062 L 79.382812 61.578125 L 98.625 72.285156 L 98.625 74.894531 Z M 91.808594 73.6875 L 94.101562 74.960938 L 94.101562 90.308594 L 91.808594 91.59375 Z M 87.160156 81.734375 L 87.160156 71.109375 L 89.554688 72.445312 L 89.554688 92.871094 L 87.160156 94.230469 Z M 84.902344 88.09375 L 84.902344 90.695312 L 70.761719 98.675781 L 68.460938 97.375 Z M 75.015625 88.585938 L 82.566406 84.320312 L 84.914062 83 L 84.914062 85.496094 L 66.160156 96.074219 L 63.9375 94.820312 Z M 51.40625 80.308594 L 68.210938 89.816406 L 65.933594 91.105469 L 51.40625 82.886719 Z M 62.871094 81.710938 L 62.871094 81.734375 L 72.714844 87.285156 L 70.511719 88.527344 L 51.40625 77.710938 L 51.40625 75.226562 Z M 58.175781 76.457031 L 55.886719 75.15625 L 55.886719 59.949219 L 58.175781 58.671875 Z M 62.871094 68.542969 L 62.871094 79.113281 L 60.433594 77.734375 L 60.433594 57.40625 L 62.871094 56.039062 Z M 65.117188 62.101562 L 65.117188 59.890625 L 79.300781 51.648438 L 81.242188 52.734375 Z M 65.117188 69.878906 L 75.003906 64.347656 L 84.890625 69.878906 L 84.890625 80.410156 L 74.992188 85.996094 L 65.105469 80.398438 L 65.105469 69.878906 Z M 65.117188 67.246094 L 65.117188 64.726562 L 83.53125 54.03125 L 85.742188 55.273438 Z M 75.015625 46.667969 L 49.148438 61.125 L 49.148438 89.074219 L 75.015625 103.667969 L 100.882812 89.074219 L 100.882812 61.125 L 75.015625 46.667969 " fill-opacity="1" fill-rule="nonzero"></path></g></svg>