<svg xmlns="http://www.w3.org/2000/svg" xmlns:xlink="http://www.w3.org/1999/xlink" width="200" viewBox="0 0 150 149.999998" height="200" preserveAspectRatio="xMidYMid meet"><defs><clipPath id="7601ec966d"><path d="M 51.800781 46.652344 L 98.300781 46.652344 L 98.300781 103.636719 L 51.800781 103.636719 Z M 51.800781 46.652344 " clip-rule="nonzero"></path></clipPath></defs><rect x="-15" width="180" fill="#ffffff" y="-15" height="179.999997" fill-opacity="1"></rect><rect x="-15" width="180" fill="#ffffff" y="-15" height="179.999997" fill-opacity="1"></rect><rect x="-15" width="180" fill="#ffffff" y="-15" height="179.999997" fill-opacity="1"></rect><g clip-path="url(#7601ec966d)"><path fill="#eb3035" d="M 75.054688 101.460938 C 74.203125 101.460938 73.519531 100.765625 73.519531 99.921875 C 73.519531 99.066406 74.214844 98.371094 75.054688 98.371094 C 75.90625 98.371094 76.601562 99.066406 76.601562 99.921875 C 76.589844 100.765625 75.898438 101.460938 75.054688 101.460938 Z M 75.054688 96.179688 C 73.007812 96.179688 71.339844 97.855469 71.339844 99.910156 C 71.339844 101.960938 73.007812 103.636719 75.054688 103.636719 C 77.101562 103.636719 78.773438 101.960938 78.773438 99.910156 C 78.761719 97.855469 77.101562 96.179688 75.054688 96.179688 Z M 76.316406 77.03125 L 76.316406 72.3125 L 95.253906 64.117188 C 95.808594 66.03125 96.117188 68.035156 96.117188 70.132812 C 96.117188 70.429688 96.082031 70.726562 96.070312 71.035156 C 94.558594 70.691406 93.003906 70.511719 91.433594 70.511719 C 85.488281 70.511719 80.125 73.019531 76.316406 77.03125 Z M 55.5625 62.039062 C 56.777344 59.054688 58.652344 56.421875 60.996094 54.289062 L 74.136719 60.753906 L 74.136719 69.941406 Z M 76.316406 48.886719 C 80.386719 49.136719 84.148438 50.550781 87.273438 52.808594 L 76.316406 58.3125 Z M 74.144531 58.324219 L 62.859375 52.785156 C 66.078125 50.46875 69.953125 49.058594 74.144531 48.875 Z M 94.539062 62.050781 L 76.316406 69.941406 L 76.316406 60.753906 L 89.125 54.324219 C 91.457031 56.445312 93.320312 59.078125 94.539062 62.050781 Z M 96.96875 62.40625 C 96.957031 62.335938 96.957031 62.269531 96.925781 62.199219 C 96.914062 62.167969 96.878906 62.144531 96.855469 62.109375 C 95.46875 58.257812 93.117188 54.882812 90.09375 52.273438 C 90.046875 52.214844 90.003906 52.167969 89.945312 52.136719 C 85.96875 48.761719 80.863281 46.71875 75.28125 46.664062 C 75.261719 46.664062 75.238281 46.652344 75.226562 46.652344 C 75.214844 46.652344 75.203125 46.664062 75.191406 46.664062 C 75.144531 46.664062 75.089844 46.652344 75.042969 46.652344 C 65.007812 46.640625 56.460938 53.125 53.210938 62.15625 C 53.199219 62.175781 53.175781 62.1875 53.175781 62.210938 C 53.164062 62.246094 53.164062 62.292969 53.152344 62.324219 C 52.289062 64.777344 51.800781 67.398438 51.800781 70.132812 C 51.800781 70.933594 51.84375 71.742188 51.925781 72.539062 C 51.980469 73.097656 52.460938 73.519531 53.003906 73.519531 C 53.039062 73.519531 53.074219 73.519531 53.117188 73.519531 C 53.253906 73.507812 53.390625 73.460938 53.503906 73.40625 C 53.527344 73.40625 53.5625 73.40625 53.585938 73.394531 C 55.230469 72.925781 56.9375 72.699219 58.664062 72.699219 C 62.394531 72.699219 65.996094 73.792969 69.078125 75.867188 C 69.257812 75.992188 69.472656 76.050781 69.679688 76.050781 C 70.03125 76.050781 70.371094 75.878906 70.589844 75.570312 C 70.917969 75.070312 70.792969 74.398438 70.292969 74.054688 C 66.847656 71.742188 62.824219 70.523438 58.664062 70.523438 C 57.097656 70.523438 55.539062 70.703125 54.027344 71.046875 C 54.015625 70.75 53.980469 70.453125 53.980469 70.144531 C 53.980469 68.046875 54.289062 66.03125 54.855469 64.117188 L 74.15625 72.324219 L 74.15625 79.710938 C 71.875 83.074219 70.542969 87.117188 70.542969 91.484375 C 70.542969 92.417969 70.621094 93.410156 70.757812 94.425781 C 70.839844 94.972656 71.304688 95.359375 71.839844 95.359375 C 71.894531 95.359375 71.941406 95.359375 71.996094 95.347656 C 72.589844 95.257812 73.007812 94.710938 72.917969 94.117188 C 72.78125 93.207031 72.714844 92.316406 72.714844 91.484375 C 72.714844 88.179688 73.578125 85.078125 75.066406 82.386719 C 76.601562 85.167969 77.410156 88.28125 77.410156 91.484375 C 77.410156 92.292969 77.339844 93.183594 77.203125 94.105469 C 77.113281 94.699219 77.523438 95.257812 78.125 95.347656 C 78.179688 95.359375 78.226562 95.359375 78.285156 95.359375 C 78.816406 95.359375 79.273438 94.972656 79.351562 94.425781 C 79.5 93.386719 79.578125 92.398438 79.578125 91.484375 C 79.578125 87.519531 78.464844 83.6875 76.375 80.347656 C 79.796875 75.707031 85.261719 72.6875 91.445312 72.6875 C 93.171875 72.6875 94.878906 72.925781 96.527344 73.382812 C 96.570312 73.394531 96.617188 73.382812 96.675781 73.394531 C 96.777344 73.441406 96.878906 73.484375 96.992188 73.496094 C 97.59375 73.566406 98.117188 73.121094 98.1875 72.515625 C 98.265625 71.730469 98.300781 70.933594 98.300781 70.132812 C 98.289062 67.421875 97.8125 64.832031 96.96875 62.40625 " fill-opacity="1" fill-rule="nonzero"></path></g></svg>