<svg xmlns="http://www.w3.org/2000/svg" xmlns:xlink="http://www.w3.org/1999/xlink" width="200" viewBox="0 0 150 149.999998" height="200" preserveAspectRatio="xMidYMid meet"><defs><clipPath id="b5b6c6ff8e"><path d="M 55.511719 46.644531 L 94.511719 46.644531 L 94.511719 103.644531 L 55.511719 103.644531 Z M 55.511719 46.644531 " clip-rule="nonzero"></path></clipPath></defs><rect x="-15" width="180" fill="#ffffff" y="-15" height="179.999997" fill-opacity="1"></rect><rect x="-15" width="180" fill="#ffffff" y="-15" height="179.999997" fill-opacity="1"></rect><rect x="-15" width="180" fill="#ffffff" y="-15" height="179.999997" fill-opacity="1"></rect><g clip-path="url(#b5b6c6ff8e)"><path fill="#2e2e2e" d="M 91.328125 84.367188 L 75.253906 100.507812 L 58.695312 83.875 L 61.601562 80.957031 L 75.253906 94.671875 L 88.421875 81.449219 Z M 74.769531 58.75 L 77.0625 61.054688 L 60.976562 77.195312 L 58.683594 74.894531 Z M 58.695312 65.921875 L 74.769531 49.777344 L 91.328125 66.410156 L 88.421875 69.332031 L 74.769531 55.628906 L 61.601562 68.851562 Z M 89.445312 73.503906 L 91.328125 75.394531 L 75.253906 91.539062 L 73.371094 89.644531 Z M 85.925781 69.957031 L 87.890625 71.929688 L 71.816406 88.070312 L 69.851562 86.101562 Z M 82.28125 66.296875 L 84.371094 68.394531 L 68.285156 84.539062 L 66.199219 82.441406 Z M 80.714844 64.734375 L 64.640625 80.878906 L 62.542969 78.769531 L 78.617188 62.617188 Z M 89.980469 70.902344 L 94.453125 66.410156 L 74.769531 46.644531 L 55.570312 65.921875 L 60.042969 70.414062 L 55.570312 74.894531 L 60.042969 79.386719 L 55.570312 83.875 L 75.253906 103.644531 L 94.453125 84.367188 L 89.980469 79.875 L 94.453125 75.382812 L 89.980469 70.902344 " fill-opacity="1" fill-rule="nonzero"></path></g></svg>