<svg xmlns="http://www.w3.org/2000/svg" xmlns:xlink="http://www.w3.org/1999/xlink" width="200" viewBox="0 0 150 149.999998" height="200" preserveAspectRatio="xMidYMid meet"><defs><clipPath id="68df415602"><path d="M 45.210938 46.667969 L 105.085938 46.667969 L 105.085938 103.667969 L 45.210938 103.667969 Z M 45.210938 46.667969 " clip-rule="nonzero"></path></clipPath></defs><rect x="-15" width="180" fill="#ffffff" y="-15" height="179.999997" fill-opacity="1"></rect><rect x="-15" width="180" fill="#ffffff" y="-15" height="179.999997" fill-opacity="1"></rect><rect x="-15" width="180" fill="#ffffff" y="-15" height="179.999997" fill-opacity="1"></rect><g clip-path="url(#68df415602)"><path fill="#2e2e2e" d="M 58.164062 82.425781 L 68.585938 95.539062 L 51.761719 82.425781 Z M 59.8125 69.5625 L 70.84375 94.761719 L 50.8125 69.5625 Z M 67.765625 55.515625 L 73.121094 94.351562 L 56.125 55.515625 Z M 81.574219 48.914062 L 75.351562 94.011719 L 69.121094 48.914062 Z M 94.570312 55.515625 L 77.574219 94.351562 L 82.929688 55.515625 Z M 100.132812 69.5625 L 91.699219 80.167969 L 91.621094 80.167969 L 91.621094 80.257812 L 79.523438 95.503906 L 90.871094 69.574219 L 100.132812 69.574219 Z M 98.605469 82.425781 L 82.972656 94.773438 L 92.792969 82.425781 Z M 94.582031 80.179688 L 104.800781 67.316406 L 91.859375 67.316406 L 98.011719 53.269531 L 83.238281 53.269531 L 84.148438 46.667969 L 66.546875 46.667969 L 67.457031 53.269531 L 52.683594 53.269531 L 58.835938 67.316406 L 46.15625 67.316406 L 56.375 80.179688 L 45.210938 80.179688 L 75.351562 103.667969 L 105.085938 80.179688 L 94.582031 80.179688 " fill-opacity="1" fill-rule="nonzero"></path></g></svg>